HIERARCHY
ROOT hip
{
	OFFSET 0.000000 0.000000 0.000000 
	CHANNELS 6 Xposition Yposition Zposition Xrotation Zrotation Yrotation
	JOINT abdomen
	{
		OFFSET 0.000000 3.402643 0.000000 
		CHANNELS 3 Xrotation Zrotation Yrotation
		JOINT chest
		{
			OFFSET 0.000000 8.438565 -0.680529 
			CHANNELS 3 Xrotation Zrotation Yrotation
			JOINT neck
			{
				OFFSET 0.000000 10.207942 -0.272212 
				CHANNELS 3 Xrotation Zrotation Yrotation
				JOINT head
				{
					OFFSET 0.000000 3.130431 0.000000 
					CHANNELS 3 Xrotation Zrotation Yrotation
					End Site
					{
						OFFSET 0.000000 3.130435 0.000000 
					}
				}
			}
			JOINT lCollar
			{
				OFFSET 3.470700 6.669187 -0.816635 
				CHANNELS 3 Yrotation Zrotation Xrotation
				JOINT lShldr
				{
					OFFSET 3.198488 0.000000 0.000000 
					CHANNELS 3 Zrotation Yrotation Xrotation
					JOINT lForeArm
					{
						OFFSET 10.139888 0.000000 0.000000 
						CHANNELS 3 Yrotation Zrotation Xrotation
						JOINT lHand
						{
							OFFSET 8.370511 0.000000 0.000000 
							CHANNELS 3 Zrotation Yrotation Xrotation
							End Site
							{
								OFFSET 4.083176 0.000000 0.000000 
							}
						}
					}
				}
			}
			JOINT rCollar
			{
				OFFSET -3.470700 6.669187 -0.816635 
				CHANNELS 3 Yrotation Zrotation Xrotation
				JOINT rShldr
				{
					OFFSET -3.198488 0.000000 0.000000 
					CHANNELS 3 Zrotation Yrotation Xrotation
					JOINT rForeArm
					{
						OFFSET -10.139888 0.000000 0.000000 
						CHANNELS 3 Yrotation Zrotation Xrotation
						JOINT rHand
						{
							OFFSET -8.370511 0.000000 0.000000 
							CHANNELS 3 Zrotation Yrotation Xrotation
							End Site
							{
								OFFSET -4.083176 0.000000 0.000000 
							}
						}
					}
				}
			}
		}
	}
	JOINT lThigh
	{
		OFFSET 5.308129 -1.633274 1.361059 
		CHANNELS 3 Xrotation Zrotation Yrotation
		JOINT lShin
		{
			OFFSET -2.041588 -20.007561 0.000000 
			CHANNELS 3 Xrotation Zrotation Yrotation
			JOINT lFoot
			{
				OFFSET 0.000000 -19.190928 -1.224953 
				CHANNELS 3 Xrotation Yrotation Zrotation
				End Site
				{
					OFFSET 0.000000 -2.449906 4.627600 
				}
			}
		}
	}
	JOINT rThigh
	{
		OFFSET -5.308129 -1.633274 1.361059 
		CHANNELS 3 Xrotation Zrotation Yrotation
		JOINT rShin
		{
			OFFSET 2.041588 -20.007561 0.000000 
			CHANNELS 3 Xrotation Zrotation Yrotation
			JOINT rFoot
			{
				OFFSET 0.000000 -19.190928 -1.224953 
				CHANNELS 3 Xrotation Yrotation Zrotation
				End Site
				{
					OFFSET 0.000000 -2.449906 4.627600 
				}
			}
		}
	}
}
MOTION
Frames: 18
Frame Time: 0.016667
0.000000 49.410290 0.913401 0.000000 0.000000 0.000000 20.725676 -0.537101 -0.322343 0.000000 0.000000 0.000000 -26.358669 -1.435505 0.439560 5.588009 2.050767 -0.214706 0.000000 0.000000 0.000000 -74.811317 -13.431073 -4.559066 -0.687263 -5.954307 6.037358 3.391611 -0.853931 -6.153819 0.000000 0.000000 0.000000 73.205627 16.152309 -5.163284 -0.042892 3.133475 5.075717 -2.056873 1.521897 -5.436424 -2.810192 3.795828 0.179483 8.628919 -3.768008 -1.275358 -5.442005 0.265368 0.104700 -2.118770 -5.398240 -0.410666 7.906763 4.802201 0.662381 -6.142789 0.192101 0.447391 
0.000000 48.722820 1.370100 0.000000 0.000000 0.000000 20.725676 -0.537101 -0.322343 0.000000 0.000000 0.000000 -26.358669 -1.435505 0.439560 5.588009 2.050767 -0.214706 0.000000 0.000000 0.000000 -75.061348 -8.540807 -3.966194 -0.687263 -5.954307 6.037358 3.391611 -0.853931 -6.153819 0.000000 0.000000 0.000000 73.272804 13.693232 -4.952246 -0.042892 3.133475 5.075717 -2.056873 1.521897 -5.436424 -8.339088 3.759370 0.236874 20.755190 -3.417768 -1.931737 -11.240086 0.064920 -0.000344 -6.946141 -5.385212 -0.381232 19.476376 4.516552 1.621320 -12.983452 0.263594 0.321383 
0.000000 47.673527 1.826799 0.000000 0.000000 0.000000 20.725676 -0.537101 -0.322343 0.000000 0.000000 0.000000 -26.358669 -1.435505 0.439560 5.588009 2.050767 -0.214706 0.000000 0.000000 0.000000 -75.473061 -3.483079 -3.302889 -0.687263 -5.954307 6.037358 3.391611 -0.853931 -6.153819 0.000000 0.000000 0.000000 73.505409 11.432125 -4.639900 -0.042892 3.133475 5.075717 -2.056873 1.521897 -5.436424 -13.914653 3.768977 0.249147 32.825066 -3.262803 -2.387513 -16.698917 -0.158366 0.155128 -11.839623 -5.407324 -0.335016 31.126350 4.154092 2.623034 -19.304342 0.205824 0.310644 
0.000000 46.262516 2.740127 0.000000 0.000000 0.000000 20.725676 -0.537101 -0.322343 0.000000 0.000000 0.000000 -26.358669 -1.435505 0.439560 5.588009 2.050767 -0.214706 0.000000 0.000000 0.000000 -75.668762 1.240751 -2.605966 -0.687263 -5.954307 6.037358 3.391611 -0.853931 -6.153819 0.000000 0.000000 0.000000 73.561386 8.959406 -4.451020 -0.042892 3.133475 5.075717 -2.056873 1.521897 -5.436424 -19.519510 3.778431 0.118229 44.847073 -2.866765 -2.926752 -22.480371 -0.094382 0.155631 -16.705494 -5.457800 -0.626681 42.682514 3.332891 3.620677 -26.326881 0.237879 0.171489 
0.000000 44.410034 3.196854 0.000000 0.000000 0.000000 20.725676 -0.537101 -0.322343 0.000000 0.000000 0.000000 -26.358669 -1.435505 0.439560 5.588009 2.050767 -0.214706 0.000000 0.000000 0.000000 -75.875328 6.307576 -1.908795 -0.687263 -5.954307 6.037358 3.391611 -0.853931 -6.153819 0.000000 0.000000 0.000000 73.763573 6.694478 -4.027618 -0.042892 3.133475 5.075717 -2.056873 1.521897 -5.436424 -25.233717 3.798651 0.168275 57.365543 -2.016363 -3.436757 -28.124994 -0.018790 0.010009 -21.675657 -5.428694 -0.391316 53.815075 2.579860 3.973945 -32.311737 0.221108 0.553356 
0.000000 42.210217 3.653546 0.000000 0.000000 0.000000 20.725676 -0.537101 -0.322343 0.000000 0.000000 0.000000 -26.358669 -1.435505 0.439560 5.588009 2.050767 -0.214706 0.000000 0.000000 0.000000 -75.922302 11.209089 -1.311444 -0.687263 -5.954307 6.037358 3.391611 -0.853931 -6.153819 0.000000 0.000000 0.000000 73.803978 4.408365 -3.840654 -0.042892 3.133475 5.075717 -2.056873 1.521897 -5.436424 -30.898376 3.816536 0.238825 69.305687 -1.159996 -3.757338 -33.554588 -0.086240 -0.042692 -26.497849 -5.448021 -0.673481 64.899620 1.562433 4.524236 -38.992886 0.301799 0.255617 
0.000000 48.054592 11.873055 11.240234 0.000000 0.000000 27.932617 -0.537101 -0.312578 0.000000 0.000000 0.000000 -26.358669 -1.435505 0.439560 5.588009 2.050767 -0.214706 0.000000 0.000000 0.000000 -74.082893 -27.490294 -5.133578 -0.687263 -5.954307 6.037358 3.391611 -0.853931 -6.153819 0.000000 0.000000 0.000000 70.596962 39.400551 -7.483476 -0.042892 3.133475 5.075717 -2.056873 1.521897 -5.436424 -20.748795 3.778241 0.166926 51.171413 -2.525302 -3.405613 -25.478178 0.119279 0.090387 -17.641270 -5.418392 -0.623568 48.170849 2.822053 3.790896 -29.518053 0.408712 0.338239 
0.000000 51.476101 20.093493 22.314453 0.000000 0.000000 35.139645 -0.537101 -0.312578 0.000000 0.000000 0.000000 -26.358669 -1.435505 0.439560 5.588009 2.050767 -0.214706 0.000000 0.000000 0.000000 -63.980560 -65.881470 -16.664097 -0.687263 -5.954307 6.037358 3.391611 -0.853931 -6.153819 0.000000 0.000000 0.000000 54.151676 73.618050 -24.163771 -0.042892 3.133475 5.075717 -2.056873 1.521897 -5.436424 -10.792725 3.776185 0.136123 32.650589 -3.360394 -2.372444 -16.357378 0.031720 0.028588 -9.051492 -5.399768 -0.580415 31.133600 4.080847 2.925261 -19.684290 0.334007 0.197607 
0.000000 51.880177 28.313927 33.554688 0.000000 0.000000 42.522461 -0.537101 -0.312578 0.000000 0.000000 0.000000 -26.358669 -1.435505 0.439560 5.588009 2.050767 -0.214706 0.000000 0.000000 0.000000 -104.301575 -107.238167 22.492254 -0.687263 -5.954307 6.037358 3.391611 -0.853931 -6.153819 0.000000 0.000000 0.000000 95.840286 111.250160 17.132328 -0.042892 3.133475 5.075717 -2.056873 1.521897 -5.436424 -0.878081 3.727665 0.101073 14.789802 -3.651434 -1.341280 -8.447085 0.055443 0.015094 -0.409613 -5.431095 -0.350956 13.967960 4.724379 1.005277 -9.857068 0.327036 0.157377 
0.000000 50.004723 36.534359 44.814453 0.000000 0.000000 49.729492 -0.537101 -0.312578 0.000000 0.000000 0.000000 -26.358669 -1.435505 0.439560 5.588009 2.050767 -0.214706 0.000000 0.000000 0.000000 -88.213501 -145.146469 5.191458 -0.687263 -5.954307 6.037358 3.391611 -0.853931 -6.153819 0.000000 0.000000 0.000000 84.486900 145.691147 5.186783 -0.042892 3.133475 5.075717 -2.056873 1.521897 -5.436424 8.846954 3.768657 -0.120699 -2.758494 -3.811544 0.265368 -0.040514 -0.025483 -0.009676 7.981718 -5.425190 -0.362283 -2.420193 5.028498 -0.102992 -0.343878 0.129126 0.237633 
0.000000 47.398144 41.101990 63.447266 0.000000 0.000000 45.335052 -0.537101 -0.322343 0.000000 0.000000 0.000000 -38.826244 -1.445291 0.312401 5.588009 2.050767 -0.214706 0.000000 0.000000 0.000000 -87.895828 -148.128204 4.953261 0.283850 -5.426861 24.202761 21.211044 1.082916 -6.294416 0.000000 0.000000 0.000000 84.179626 148.855637 5.098927 1.403768 1.829992 22.253565 -18.833086 1.478918 -6.529919 -2.798107 3.792667 0.178743 -2.916989 -3.746567 -0.097416 -0.190430 -0.170503 -0.064983 -3.530843 -5.452164 -0.466301 -2.820864 5.046356 0.009870 -0.343992 0.117387 0.212228 
0.000000 48.069595 45.668907 82.080078 0.000000 0.000000 40.940426 -0.537101 -0.312578 0.000000 0.000000 0.000000 -51.137554 -1.464836 0.185486 5.588009 2.050767 -0.214706 0.000000 0.000000 0.000000 -87.613792 -151.097794 4.647768 1.023541 -4.628363 42.147335 39.065170 2.909348 -6.006405 0.000000 0.000000 0.000000 83.883026 152.003082 4.939847 3.048277 1.107306 39.453171 -35.735657 1.065293 -7.301173 -14.272664 3.767922 0.438645 -3.133452 -3.807224 -0.255256 -0.191641 -0.155721 -0.059348 -15.579125 -5.436893 -0.610419 -2.731604 4.909407 0.393790 -0.193003 -0.106273 0.356645 
0.000000 44.676826 50.235809 100.703156 -0.009766 -0.175783 36.545994 -0.537101 -0.322343 0.000000 0.000000 0.000000 -63.429550 -1.523437 0.068335 5.588009 2.050767 -0.214706 0.000000 0.000000 0.000000 -87.334236 -154.255936 4.344225 1.493616 -3.622306 60.268440 57.131348 4.638944 -5.011325 0.000000 0.000000 0.000000 83.615288 154.988892 4.538759 4.922698 0.844683 56.798241 -52.414490 0.305567 -7.982660 -26.450872 3.797717 0.391505 -2.916541 -3.756700 -0.302077 -0.154818 -0.167988 -0.053506 -27.571619 -5.448105 -0.709942 -2.731961 4.908057 0.364559 -0.204470 -0.119180 0.341280 
0.000000 42.299835 54.802715 119.335930 0.000000 -0.175781 32.151463 -0.537101 -0.322343 0.000000 0.000000 0.000000 -75.731331 -1.601562 -0.039320 5.588009 2.050767 -0.214706 0.000000 0.000000 0.000000 -87.099586 -157.230850 4.142323 1.622147 -2.536438 78.161797 75.083481 5.927702 -3.595902 0.000000 0.000000 0.000000 83.353638 158.141693 4.393924 6.854131 1.118284 74.215126 -69.229797 -0.549775 -8.442247 -38.331196 3.797596 0.175476 -2.928348 -3.728816 0.088078 -0.167016 -0.178800 -0.068115 -39.340786 -5.457991 -0.690569 -2.731611 4.909405 0.393790 -0.214246 -0.146451 0.362238 
0.000000 38.947159 59.369621 137.792969 0.000000 -0.175781 27.756926 -0.537101 -0.322343 0.000000 0.000000 0.000000 -88.209396 -1.708981 -0.117427 5.588009 2.050767 -0.214706 0.000000 0.000000 0.000000 -86.867020 -160.209152 3.934533 1.415877 -1.456990 96.226891 93.105659 6.851989 -1.926229 0.000000 0.000000 0.000000 83.122856 161.290756 4.193893 8.485630 2.001967 91.369194 -86.040680 -1.384898 -8.778957 -50.349262 3.808087 0.192653 -2.917592 -3.747029 -0.116926 -0.174832 -0.142469 -0.064718 -51.387276 -5.438604 -0.644462 -2.732281 4.908649 0.384062 -0.192655 -0.039940 0.193803 
0.000000 39.698521 62.110321 140.615234 0.000000 -0.175781 30.569334 -0.537101 -0.312578 0.000000 0.000000 0.000000 -85.758530 -1.699216 -0.107664 5.588009 2.050767 -0.214706 0.000000 0.000000 0.000000 -86.853119 -160.559860 3.926636 -4.738721 -1.441376 95.955292 91.877083 6.828263 -2.052429 0.000000 0.000000 0.000000 83.410492 161.314148 4.258695 14.452180 1.559515 91.080185 -86.050331 -1.386388 -8.778720 -33.417400 3.808334 0.141002 6.702051 -3.775550 -0.612613 0.163254 -0.060938 -0.023012 -34.948368 -5.468390 -0.380595 6.857116 4.789440 0.461267 0.202339 0.442002 0.177181 
0.000000 40.219597 64.850471 143.593750 0.000000 -0.175781 33.557613 -0.537101 -0.312578 0.000000 0.000000 0.000000 -83.473984 -1.679686 -0.088139 5.588009 2.050767 -0.214706 0.000000 0.000000 0.000000 -86.818298 -160.912827 3.847548 -10.895041 -1.568078 95.635582 90.638771 6.802020 -2.189423 0.000000 0.000000 0.000000 83.683914 161.511993 4.325715 20.425743 1.093463 90.697227 -86.050331 -1.386388 -8.778720 -16.283602 3.797246 0.164121 16.972364 -3.691565 -1.306067 0.165935 -0.054239 -0.020484 -18.360186 -5.427227 -0.659538 17.081192 4.616709 1.581903 0.199070 0.267498 0.111344 
0.000000 40.472961 67.590614 146.416016 0.000000 -0.175781 36.545994 -0.537101 -0.322343 0.000000 0.000000 0.000000 -81.189430 -1.660155 -0.068614 5.588009 2.050767 -0.214706 0.000000 0.000000 0.000000 -86.786812 -161.429047 3.823305 -17.047773 -1.480854 95.348595 89.223686 6.775787 -2.337326 0.000000 0.000000 0.000000 83.978294 161.520050 4.162045 26.567152 0.620205 90.563278 -86.050331 -1.386388 -8.778720 0.653859 3.746325 0.031677 27.522585 -3.525436 -2.043120 0.160954 0.031124 0.032630 -1.962717 -5.458318 -0.399779 27.566412 4.335498 2.180039 0.224470 0.432635 0.173571 
